<?xml version="1.0" encoding="UTF-8" standalone="no"?>
<!-- This is a Stata 15.1 generated SVG file (http://www.stata.com) -->

<svg version="1.1" width="5.50in" height="4.00in" viewBox="0 0 3960 2880" xmlns="http://www.w3.org/2000/svg" xmlns:xlink="http://www.w3.org/1999/xlink">
	<desc>Stata Graph - Graph</desc>
	<rect x="0" y="0" width="3960" height="2880" style="fill:#EAF2F3;stroke:none"/>
	<rect x="0.00" y="0.00" width="3959.88" height="2880.00" style="fill:#EAF2F3"/>
	<rect x="2.88" y="2.88" width="3954.12" height="2874.24" style="fill:none;stroke:#EAF2F3;stroke-width:5.76"/>
	<rect x="390.80" y="100.86" width="3468.22" height="2388.33" style="fill:#FFFFFF"/>
	<rect x="393.68" y="103.74" width="3462.46" height="2382.57" style="fill:none;stroke:#FFFFFF;stroke-width:5.76"/>
	<line x1="390.80" y1="2351.82" x2="3859.02" y2="2351.82" style="stroke:#EAF2F3;stroke-width:8.64"/>
	<line x1="390.80" y1="1804.95" x2="3859.02" y2="1804.95" style="stroke:#EAF2F3;stroke-width:8.64"/>
	<line x1="390.80" y1="1257.96" x2="3859.02" y2="1257.96" style="stroke:#EAF2F3;stroke-width:8.64"/>
	<line x1="390.80" y1="711.09" x2="3859.02" y2="711.09" style="stroke:#EAF2F3;stroke-width:8.64"/>
	<circle cx="3465.25" cy="538.70" r="26.35" style="fill:#1A476F"/>
	<circle cx="3465.25" cy="538.70" r="22.03" style="fill:none;stroke:#1A476F;stroke-width:8.64"/>
	<circle cx="1337.49" cy="1934.52" r="26.35" style="fill:#1A476F"/>
	<circle cx="1337.49" cy="1934.52" r="22.03" style="fill:none;stroke:#1A476F;stroke-width:8.64"/>
	<circle cx="3413.52" cy="787.57" r="26.35" style="fill:#1A476F"/>
	<circle cx="3413.52" cy="787.57" r="22.03" style="fill:none;stroke:#1A476F;stroke-width:8.64"/>
	<circle cx="3401.76" cy="1295.95" r="26.35" style="fill:#1A476F"/>
	<circle cx="3401.76" cy="1295.95" r="22.03" style="fill:none;stroke:#1A476F;stroke-width:8.64"/>
	<circle cx="2956.76" cy="2016.20" r="26.35" style="fill:#1A476F"/>
	<circle cx="2956.76" cy="2016.20" r="22.03" style="fill:none;stroke:#1A476F;stroke-width:8.64"/>
	<circle cx="3527.12" cy="2425.95" r="26.35" style="fill:#1A476F"/>
	<circle cx="3527.12" cy="2425.95" r="22.03" style="fill:none;stroke:#1A476F;stroke-width:8.64"/>
	<circle cx="2771.26" cy="696.49" r="26.35" style="fill:#1A476F"/>
	<circle cx="2771.26" cy="696.49" r="22.03" style="fill:none;stroke:#1A476F;stroke-width:8.64"/>
	<circle cx="1173.89" cy="2061.99" r="26.35" style="fill:#1A476F"/>
	<circle cx="1173.89" cy="2061.99" r="22.03" style="fill:none;stroke:#1A476F;stroke-width:8.64"/>
	<circle cx="3222.82" cy="2299.59" r="26.35" style="fill:#1A476F"/>
	<circle cx="3222.82" cy="2299.59" r="22.03" style="fill:none;stroke:#1A476F;stroke-width:8.64"/>
	<circle cx="601.80" cy="917.02" r="26.35" style="fill:#1A476F"/>
	<circle cx="601.80" cy="917.02" r="22.03" style="fill:none;stroke:#1A476F;stroke-width:8.64"/>
	<line x1="390.80" y1="2489.19" x2="390.80" y2="100.86" style="stroke:#000000;stroke-width:5.76"/>
	<line x1="390.80" y1="2351.82" x2="350.83" y2="2351.82" style="stroke:#000000;stroke-width:5.76"/>
	<text x="300.72" y="2351.82" style="font-family:'Helvetica';font-size:99.99px;fill:#000000" transform="rotate(-90 300.72,2351.82)" text-anchor="middle">.2</text>
	<line x1="390.80" y1="1804.95" x2="350.83" y2="1804.95" style="stroke:#000000;stroke-width:5.76"/>
	<text x="300.72" y="1804.95" style="font-family:'Helvetica';font-size:99.99px;fill:#000000" transform="rotate(-90 300.72,1804.95)" text-anchor="middle">.4</text>
	<line x1="390.80" y1="1257.96" x2="350.83" y2="1257.96" style="stroke:#000000;stroke-width:5.76"/>
	<text x="300.72" y="1257.96" style="font-family:'Helvetica';font-size:99.99px;fill:#000000" transform="rotate(-90 300.72,1257.96)" text-anchor="middle">.6</text>
	<line x1="390.80" y1="711.09" x2="350.83" y2="711.09" style="stroke:#000000;stroke-width:5.76"/>
	<text x="300.72" y="711.09" style="font-family:'Helvetica';font-size:99.99px;fill:#000000" transform="rotate(-90 300.72,711.09)" text-anchor="middle">.8</text>
	<line x1="390.80" y1="164.22" x2="350.83" y2="164.22" style="stroke:#000000;stroke-width:5.76"/>
	<text x="300.72" y="164.22" style="font-family:'Helvetica';font-size:99.99px;fill:#000000" transform="rotate(-90 300.72,164.22)" text-anchor="middle">1</text>
	<text x="190.71" y="1294.96" style="font-family:'Helvetica';font-size:99.99px;fill:#000000" transform="rotate(-90 190.71,1294.96)" text-anchor="middle">y</text>
	<line x1="390.80" y1="2489.19" x2="3859.02" y2="2489.19" style="stroke:#000000;stroke-width:5.76"/>
	<line x1="454.16" y1="2489.19" x2="454.16" y2="2529.16" style="stroke:#000000;stroke-width:5.76"/>
	<text x="454.16" y="2619.14" style="font-family:'Helvetica';font-size:99.99px;fill:#000000" text-anchor="middle">0</text>
	<line x1="1122.41" y1="2489.19" x2="1122.41" y2="2529.16" style="stroke:#000000;stroke-width:5.76"/>
	<text x="1122.41" y="2619.14" style="font-family:'Helvetica';font-size:99.99px;fill:#000000" text-anchor="middle">.2</text>
	<line x1="1790.79" y1="2489.19" x2="1790.79" y2="2529.16" style="stroke:#000000;stroke-width:5.76"/>
	<text x="1790.79" y="2619.14" style="font-family:'Helvetica';font-size:99.99px;fill:#000000" text-anchor="middle">.4</text>
	<line x1="2459.04" y1="2489.19" x2="2459.04" y2="2529.16" style="stroke:#000000;stroke-width:5.76"/>
	<text x="2459.04" y="2619.14" style="font-family:'Helvetica';font-size:99.99px;fill:#000000" text-anchor="middle">.6</text>
	<line x1="3127.41" y1="2489.19" x2="3127.41" y2="2529.16" style="stroke:#000000;stroke-width:5.76"/>
	<text x="3127.41" y="2619.14" style="font-family:'Helvetica';font-size:99.99px;fill:#000000" text-anchor="middle">.8</text>
	<line x1="3795.66" y1="2489.19" x2="3795.66" y2="2529.16" style="stroke:#000000;stroke-width:5.76"/>
	<text x="3795.66" y="2619.14" style="font-family:'Helvetica';font-size:99.99px;fill:#000000" text-anchor="middle">1</text>
	<text x="2124.91" y="2729.16" style="font-family:'Helvetica';font-size:99.99px;fill:#000000" text-anchor="middle">x</text>
</svg>
